<svg width="10" height="10" viewBox="0 0 10 10" fill="none" xmlns="http://www.w3.org/2000/svg">
<path d="M3.16675 6.99927H5.66675C5.66675 6.99927 6.16675 6.99927 6.16675 7.49927C6.16675 7.99927 5.66675 7.99927 5.66675 7.99927H3.16675C3.16675 7.99927 2.66675 7.99927 2.66675 7.49927C2.66675 6.99927 3.16675 6.99927 3.16675 6.99927ZM3.16675 4.99927H7.16675C7.16675 4.99927 7.66675 4.99927 7.66675 5.49927C7.66675 5.99927 7.16675 5.99927 7.16675 5.99927H3.16675C3.16675 5.99927 2.66675 5.99927 2.66675 5.49927C2.66675 4.99927 3.16675 4.99927 3.16675 4.99927ZM3.16675 2.99927H7.16675C7.16675 2.99927 7.66675 2.99927 7.66675 3.49927C7.66675 3.99927 7.16675 3.99927 7.16675 3.99927H3.16675C3.16675 3.99927 2.66675 3.99927 2.66675 3.49927C2.66675 2.99927 3.16675 2.99927 3.16675 2.99927ZM8.66675 0.999268H6.57675C6.36675 0.419268 5.81675 -0.000732422 5.16675 -0.000732422C4.51675 -0.000732422 3.96675 0.419268 3.75675 0.999268H1.66675C1.59675 0.999268 1.53175 1.00427 1.46675 1.01927C1.27175 1.05927 1.09675 1.15927 0.961748 1.29427C0.871748 1.38427 0.796748 1.49427 0.746748 1.61427C0.696748 1.72927 0.666748 1.85927 0.666748 1.99927V8.99927C0.666748 9.13427 0.696748 9.26927 0.746748 9.38927C0.796748 9.50927 0.871748 9.61427 0.961748 9.70927C1.09675 9.84427 1.27175 9.94427 1.46675 9.98427C1.53175 9.99427 1.59675 9.99927 1.66675 9.99927H8.66675C9.21675 9.99927 9.66675 9.54927 9.66675 8.99927V1.99927C9.66675 1.44927 9.21675 0.999268 8.66675 0.999268ZM5.16675 0.874268C5.37175 0.874268 5.54175 1.04427 5.54175 1.24927C5.54175 1.45427 5.37175 1.62427 5.16675 1.62427C4.96175 1.62427 4.79175 1.45427 4.79175 1.24927C4.79175 1.04427 4.96175 0.874268 5.16675 0.874268ZM8.66675 8.99927H1.66675V1.99927H8.66675V8.99927Z" fill="#1077A9"/>
</svg>
