<svg width="11" height="12" viewBox="0 0 11 12" fill="none" xmlns="http://www.w3.org/2000/svg">
<path d="M8.51702 4.05089H7.4839V0.802101C7.4839 0.444735 7.19151 0.152344 6.83414 0.152344H4.23512C3.87775 0.152344 3.58536 0.444735 3.58536 0.802101V4.05089H2.55224C1.97396 4.05089 1.68157 4.75263 2.09092 5.16197L5.0733 8.14436C5.32671 8.39777 5.73605 8.39777 5.98946 8.14436L8.97185 5.16197C9.38119 4.75263 9.0953 4.05089 8.51702 4.05089ZM0.986328 10.5485C0.986328 10.9058 1.27872 11.1982 1.63609 11.1982H9.43317C9.79054 11.1982 10.0829 10.9058 10.0829 10.5485C10.0829 10.1911 9.79054 9.8987 9.43317 9.8987H1.63609C1.27872 9.8987 0.986328 10.1911 0.986328 10.5485Z" fill="#006FCB"/>
</svg>
