<svg width="9" height="10" viewBox="0 0 9 10" fill="none" xmlns="http://www.w3.org/2000/svg">
<path d="M4.75175 0.999268L7.16675 3.41427V8.99927H1.16675V0.999268H4.75175ZM5.16675 -0.000732422H1.16675C0.616748 -0.000732422 0.166748 0.449268 0.166748 0.999268V8.99927C0.166748 9.54927 0.616748 9.99927 1.16675 9.99927H7.16675C7.71675 9.99927 8.16675 9.54927 8.16675 8.99927V2.99927L5.16675 -0.000732422Z" fill="#B98023"/>
<path d="M4.52557 7.47116C4.43057 7.57116 4.31056 7.62116 4.17057 7.62116C4.03557 7.62116 3.90557 7.56616 3.81557 7.47116C3.72057 7.37616 3.66557 7.25116 3.67057 7.11616C3.66557 6.84116 3.88556 6.62116 4.16056 6.61616C4.16557 6.61616 4.16557 6.61616 4.17057 6.61616C4.44557 6.61116 4.66557 6.83116 4.67057 7.10616C4.67057 7.11116 4.67057 7.11116 4.67057 7.11616C4.67057 7.25616 4.62056 7.37616 4.52557 7.47116ZM5.51556 4.57616C5.41056 4.75116 5.27557 4.93116 5.07057 5.12116C4.91057 5.27116 4.80556 5.40116 4.74556 5.50616C4.69556 5.60116 4.66557 5.75116 4.66557 5.85116V5.88616C4.66056 6.02116 4.54557 6.12116 4.41056 6.12116H3.98557C3.84557 6.12116 3.73557 6.01116 3.73557 5.87116V5.79116C3.73557 5.56616 3.78557 5.37116 3.88057 5.21116C3.97557 5.04616 4.14057 4.86116 4.38057 4.65116C4.52057 4.52616 4.62056 4.41616 4.68556 4.32116C4.75057 4.22616 4.78057 4.12116 4.78057 4.00116C4.78057 3.85616 4.72556 3.73116 4.62056 3.63116C4.51056 3.53116 4.37057 3.48116 4.19557 3.48116C4.01057 3.48116 3.82557 3.53116 3.71557 3.63116C3.65557 3.69116 3.61057 3.74616 3.57057 3.82116C3.55557 3.85616 3.53057 3.92616 3.52557 3.95116C3.50057 4.03616 3.40557 4.12116 3.29057 4.12116H2.94556C2.81557 4.12116 2.71057 4.02616 2.69556 3.89616C2.69056 3.85616 2.69556 3.81616 2.70556 3.77616C2.79556 3.41616 2.96556 3.19616 3.15557 3.01616C3.43556 2.76616 3.79557 2.62116 4.17057 2.62116C4.46557 2.62116 4.72556 2.68116 4.95556 2.79616C5.18556 2.91116 5.35056 3.07116 5.48057 3.27616C5.60557 3.48116 5.67056 3.70116 5.67056 3.95116C5.67056 4.19616 5.61556 4.40116 5.51556 4.57616Z" fill="#B98023"/>
</svg>
