<svg xmlns="http://www.w3.org/2000/svg" width="24" height="24" viewBox="0 0 24 24" fill="none">
  <mask id="mask0_12725_1206" style="mask-type:alpha" maskUnits="userSpaceOnUse" x="0" y="0" width="24" height="24">
    <rect width="24" height="24" fill="#D9D9D9"/>
  </mask>
  <g mask="url(#mask0_12725_1206)">
    <path d="M12 20.5C10.8338 20.5 9.73452 20.2769 8.70225 19.8307C7.66998 19.3846 6.76795 18.7756 5.99615 18.0038C5.22437 17.232 4.6154 16.33 4.16925 15.2977C3.72308 14.2655 3.5 13.1662 3.5 12C3.5 11.3115 3.57692 10.6471 3.73077 10.0067C3.88462 9.36637 4.10386 8.76284 4.38847 8.19617C4.67307 7.62951 5.01537 7.10291 5.41537 6.61637C5.81537 6.12984 6.26152 5.69106 6.75382 5.30002L13.2077 11.7538L12.1538 12.8077L6.75382 7.40767C6.24101 8.00126 5.8205 8.6785 5.4923 9.4394C5.16408 10.2003 4.99997 11.0538 4.99997 12C4.99997 13.9333 5.68331 15.5833 7.04998 16.95C8.41664 18.3167 10.0666 19 12 19C13.9333 19 15.5833 18.3167 16.95 16.95C18.3166 15.5833 19 13.9333 19 12C19 10.2359 18.4211 8.69199 17.2634 7.36827C16.1057 6.04454 14.6013 5.27562 12.75 5.06152V7H11.25V3.50002H12C13.1662 3.50002 14.2654 3.72311 15.2977 4.16927C16.33 4.61542 17.232 5.22439 18.0038 5.99617C18.7756 6.76797 19.3846 7.67001 19.8307 8.70227C20.2769 9.73454 20.5 10.8338 20.5 12C20.5 13.1662 20.2769 14.2655 19.8307 15.2977C19.3846 16.33 18.7756 17.232 18.0038 18.0038C17.232 18.7756 16.33 19.3846 15.2977 19.8307C14.2654 20.2769 13.1662 20.5 12 20.5ZM11.9993 17.8846C11.7485 17.8846 11.5384 17.7998 11.3692 17.6301C11.2 17.4604 11.1154 17.2502 11.1154 16.9993C11.1154 16.7485 11.2002 16.5385 11.3699 16.3692C11.5396 16.2 11.7498 16.1154 12.0007 16.1154C12.2515 16.1154 12.4615 16.2002 12.6308 16.3699C12.8 16.5396 12.8846 16.7498 12.8846 17.0007C12.8846 17.2515 12.7997 17.4615 12.6301 17.6308C12.4604 17.8 12.2501 17.8846 11.9993 17.8846ZM16.9993 12.8846C16.7485 12.8846 16.5384 12.7998 16.3692 12.6301C16.2 12.4604 16.1154 12.2502 16.1154 11.9993C16.1154 11.7485 16.2002 11.5385 16.3699 11.3692C16.5396 11.2 16.7498 11.1154 17.0007 11.1154C17.2515 11.1154 17.4615 11.2002 17.6308 11.3699C17.8 11.5396 17.8846 11.7498 17.8846 12.0007C17.8846 12.2515 17.7997 12.4615 17.6301 12.6308C17.4604 12.8 17.2501 12.8846 16.9993 12.8846ZM6.9993 12.8846C6.74847 12.8846 6.53843 12.7998 6.3692 12.6301C6.19998 12.4604 6.11538 12.2502 6.11538 11.9993C6.11538 11.7485 6.20021 11.5385 6.36988 11.3692C6.53956 11.2 6.74982 11.1154 7.00065 11.1154C7.25148 11.1154 7.46152 11.2002 7.63075 11.3699C7.79997 11.5396 7.88458 11.7498 7.88458 12.0007C7.88458 12.2515 7.79974 12.4615 7.63008 12.6308C7.46039 12.8 7.25013 12.8846 6.9993 12.8846Z" fill="#5D6C83"/>
  </g>
</svg>